<?xml version="1.0" encoding="utf-8"?>
<!-- Generator: Adobe Illustrator 21.0.0, SVG Export Plug-In . SVG Version: 6.00 Build 0)  -->
<svg version="1.1" id="Capa_1" xmlns="http://www.w3.org/2000/svg" xmlns:xlink="http://www.w3.org/1999/xlink" x="0px" y="0px"
	 viewBox="0 0 85 30" style="enable-background:new 0 0 85 30;" xml:space="preserve">
<style type="text/css">
	.st0{fill:#FF724C;}
	.st1{font-family:'Lato-BoldItalic';}
	.st2{font-size:15.8244px;}
</style>
<g>
	<g>
		<g>
			<path class="st0" d="M24.7,16.4c-0.1-0.4-0.2-0.8-0.3-1.2c-0.1-0.4-0.3-0.7-0.5-1c-0.6-1-1.4-1.7-2.4-2.2
				c-0.4-0.2-0.7-0.3-1.1-0.4c-0.3-0.1-0.7-0.1-1-0.1c0,0-0.1,0-0.1,0c0,0-0.1,0-0.1,0c0,0,0,0,0,0c0,0,0,0-0.1,0c0,0-0.1,0-0.1,0
				c0,0,0,0,0,0c-0.3,0-0.7,0-1,0.1v0v-1.1c0-0.2,0-0.4,0-0.6L15.8,10c0,0.1,0,0.3,0,0.4v1.7H16c0,0,0,0,0,0c-0.1,0-0.2,0.1-0.3,0.1
				c-0.2,0.1-0.4,0.2-0.7,0.4c-0.1,0.1-0.3,0.2-0.4,0.2c0,0-0.1,0.1-0.1,0.1c-1.6,1.1-2.2,2.7-3.3,4.2c-1.4,1.8-3.7,2.7-5.8,3.4
				c1.3,3.4,6,4.8,9.1,4.8c0.1,0,0.2,0,0.3,0c0.4,0,0.8,0,1.3-0.1c0.1,0,0.2,0,0.3,0c1.5-0.2,3-0.6,4.3-1.2c0.1-0.1,0.2-0.1,0.3-0.2
				c0.2-0.1,0.3-0.2,0.4-0.3c0.1-0.1,0.2-0.1,0.3-0.2c0.1-0.1,0.2-0.1,0.3-0.2c0.2-0.1,0.4-0.3,0.5-0.4c0,0,0.1-0.1,0.1-0.1
				c0.1-0.1,0.1-0.1,0.2-0.2c0,0,0.1-0.1,0.1-0.1c0.5-0.5,1-1.1,1.3-1.9C24.8,19.2,25,17.8,24.7,16.4z"/>
		</g>
	</g>
	<g>
		<g>
			<path class="st0" d="M28.1,2.3l-0.3,0.3c-1.5,1.5-3.2,3.2-4.8,4.8c-0.7,0.7-1.4,1.4-2.1,2.1c0.4,0.1,0.8,0.2,1.1,0.4
				c0.3,0.1,0.7,0.3,1,0.5c0.9,0.5,1.7,1.3,2.4,2.2c0.1,0.2,0.3,0.4,0.4,0.6c0.1,0.1,0.1,0.2,0.2,0.4c0.2,0.3,0.3,0.7,0.5,1.1
				c1.1-1.2,2.5-2.7,4-4.3c2.3-2.5,4.7-5.1,5.7-6.2l1.7-1.8L28.1,2.3z"/>
		</g>
	</g>
	<g>
		<g>
			<path class="st0" d="M9.6,2.3C8.8,2.3,8,2.4,7.2,2.6l0.6,2C8.4,4.5,9,4.4,9.6,4.4L9.6,2.3z"/>
		</g>
	</g>
	<g>
		<g>
			<path class="st0" d="M2,7.6c-0.3,0.8-0.4,1.6-0.5,2.4l2.1,0.1c0-0.6,0.1-1.2,0.4-1.8L2,7.6z"/>
		</g>
	</g>
	<g>
		<g>
			<path class="st0" d="M4.9,3.7C4.3,4.2,3.7,4.8,3.1,5.5l1.7,1.3c0.4-0.5,0.8-0.9,1.3-1.3L4.9,3.7z"/>
		</g>
	</g>
	<g>
		<g>
			<path class="st0" d="M12.1,2.6l-0.6,2c0.6,0.2,1.1,0.4,1.7,0.8l1.2-1.8C13.6,3.2,12.8,2.8,12.1,2.6z"/>
		</g>
	</g>
	<g>
		<g>
			<path class="st0" d="M16.1,5.3l-1.7,1.3c0.4,0.5,0.7,1,0.9,1.6l2-0.8C17.1,6.7,16.7,5.9,16.1,5.3z"/>
		</g>
	</g>
	<g>
		<g>
			<rect x="1.5" y="12.3" class="st0" width="2.1" height="2.2"/>
		</g>
	</g>
	<g>
		<g>
			<path class="st0" d="M4.9,24.2l-1.7,1.3c0.5,0.6,1.1,1.2,1.8,1.7l1.2-1.8C5.8,25.1,5.3,24.7,4.9,24.2z"/>
		</g>
	</g>
	<g>
		<g>
			<path class="st0" d="M4,22.5c-0.2-0.5-0.3-1.1-0.4-1.7l-0.4,0L1.5,21c0.1,0.8,0.2,1.6,0.5,2.4l2-0.8C4,22.6,4,22.6,4,22.5z"/>
		</g>
	</g>
	<g>
		<g>
			<polygon class="st0" points="1.5,16.6 1.5,18.8 3.6,18.8 3.6,18.8 3.6,18.8 3.6,16.6 			"/>
		</g>
	</g>
	<g>
		<g>
			<path class="st0" d="M13.2,25.4c-0.5,0.4-1.1,0.6-1.6,0.8l0.3,1l0.3,1c0.6-0.2,1.2-0.5,1.7-0.8c0.2-0.1,0.3-0.2,0.5-0.3
				L13.2,25.4z"/>
		</g>
	</g>
	<g>
		<g>
			<path class="st0" d="M9.6,26.5c-0.1,0-0.2,0-0.4,0c-0.4,0-0.9-0.1-1.3-0.2l-0.6,2c0.7,0.2,1.5,0.3,2.3,0.3h0.2v-2v-0.2H9.6z"/>
		</g>
	</g>
</g>
<text transform="matrix(1 0 0 1 27.9541 23.8799)" class="st0 st1 st2">Sandeep</text>
</svg>
